<svg width="400" height="400" viewBox="0 0 400 400" fill="none" xmlns="http://www.w3.org/2000/svg">
<rect width="400" height="400" fill="#E5E5E5"/>
<path d="M98 146.5V273.5L209.5 308L302 252V133.5L191 92L98 146.5Z" fill="#F48867" stroke="black"/>
<path d="M210 180.5L98 146.5V273.5L210 308V180.5Z" fill="#EA6F49"/>
<path d="M98 146.5L98.1452 146.022C97.9937 145.976 97.8294 146.004 97.7022 146.098C97.575 146.193 97.5 146.342 97.5 146.5H98ZM210 180.5H210.5C210.5 180.28 210.356 180.086 210.145 180.022L210 180.5ZM210 308L209.853 308.478C210.004 308.525 210.169 308.497 210.297 308.402C210.425 308.308 210.5 308.159 210.5 308H210ZM98 273.5H97.5C97.5 273.719 97.6431 273.913 97.8528 273.978L98 273.5ZM97.8548 146.978L209.855 180.978L210.145 180.022L98.1452 146.022L97.8548 146.978ZM209.5 180.5V308H210.5V180.5H209.5ZM210.147 307.522L98.1472 273.022L97.8528 273.978L209.853 308.478L210.147 307.522ZM98.5 273.5V146.5H97.5V273.5H98.5Z" fill="black"/>
<path d="M302 134L210 180V308L302 252V134Z" fill="#F5A78F"/>
<path d="M210 180L209.776 179.553C209.607 179.637 209.5 179.811 209.5 180H210ZM302 134H302.5C302.5 133.827 302.41 133.666 302.263 133.575C302.115 133.484 301.931 133.475 301.776 133.553L302 134ZM302 252L302.26 252.427C302.409 252.336 302.5 252.174 302.5 252H302ZM210 308H209.5C209.5 308.181 209.598 308.347 209.755 308.436C209.913 308.524 210.106 308.521 210.26 308.427L210 308ZM210.224 180.447L302.224 134.447L301.776 133.553L209.776 179.553L210.224 180.447ZM301.5 134V252H302.5V134H301.5ZM301.74 251.573L209.74 307.573L210.26 308.427L302.26 252.427L301.74 251.573ZM210.5 308V180H209.5V308H210.5Z" fill="black"/>
</svg>
