<svg width="406" height="53" viewBox="0 0 406 53" fill="none" xmlns="http://www.w3.org/2000/svg">
<path d="M42.0703 45.5312C40.1719 47.8047 37.4883 49.5742 34.0195 50.8398C30.5508 52.082 26.707 52.7031 22.4883 52.7031C18.0586 52.7031 14.168 51.7422 10.8164 49.8203C7.48828 47.875 4.91016 45.0625 3.08203 41.3828C1.27734 37.7031 0.351562 33.3789 0.304688 28.4102V24.9297C0.304688 19.8203 1.16016 15.4023 2.87109 11.6758C4.60547 7.92578 7.08984 5.06641 10.3242 3.09766C13.582 1.10547 17.3906 0.109375 21.75 0.109375C27.8203 0.109375 32.5664 1.5625 35.9883 4.46875C39.4102 7.35156 41.4375 11.5586 42.0703 17.0898H31.8047C31.3359 14.1602 30.293 12.0156 28.6758 10.6562C27.082 9.29688 24.8789 8.61719 22.0664 8.61719C18.4805 8.61719 15.75 9.96484 13.875 12.6602C12 15.3555 11.0508 19.3633 11.0273 24.6836V27.9531C11.0273 33.3203 12.0469 37.375 14.0859 40.1172C16.125 42.8594 19.1133 44.2305 23.0508 44.2305C27.0117 44.2305 29.8359 43.3867 31.5234 41.6992V32.875H21.9258V25.1055H42.0703V45.5312Z" fill="black"/>
<path d="M81.4453 29.8164H61.1953V43.5273H84.9609V52H50.6484V0.8125H84.8906V9.35547H61.1953V21.5547H81.4453V29.8164Z" fill="black"/>
<path d="M133.195 27.5664C133.195 32.6055 132.305 37.0234 130.523 40.8203C128.742 44.6172 126.188 47.5469 122.859 49.6094C119.555 51.6719 115.758 52.7031 111.469 52.7031C107.227 52.7031 103.441 51.6836 100.113 49.6445C96.7852 47.6055 94.207 44.6992 92.3789 40.9258C90.5508 37.1289 89.625 32.7695 89.6016 27.8477V25.3164C89.6016 20.2773 90.5039 15.8477 92.3086 12.0273C94.1367 8.18359 96.7031 5.24219 100.008 3.20312C103.336 1.14062 107.133 0.109375 111.398 0.109375C115.664 0.109375 119.449 1.14062 122.754 3.20312C126.082 5.24219 128.648 8.18359 130.453 12.0273C132.281 15.8477 133.195 20.2656 133.195 25.2812V27.5664ZM122.508 25.2461C122.508 19.8789 121.547 15.8008 119.625 13.0117C117.703 10.2227 114.961 8.82812 111.398 8.82812C107.859 8.82812 105.129 10.2109 103.207 12.9766C101.285 15.7188 100.312 19.75 100.289 25.0703V27.5664C100.289 32.793 101.25 36.8477 103.172 39.7305C105.094 42.6133 107.859 44.0547 111.469 44.0547C115.008 44.0547 117.727 42.6719 119.625 39.9062C121.523 37.1172 122.484 33.0625 122.508 27.7422V25.2461Z" fill="black"/>
<path d="M154.641 0.8125L167.789 37.9375L180.867 0.8125H194.719V52H184.137V38.0078L185.191 13.8555L171.375 52H164.133L150.352 13.8906L151.406 38.0078V52H140.859V0.8125H154.641Z" fill="black"/>
<path d="M248.402 38.5703C248.402 36.5781 247.699 35.0547 246.293 34C244.887 32.9219 242.355 31.7969 238.699 30.625C235.043 29.4297 232.148 28.2578 230.016 27.1094C224.203 23.9688 221.297 19.7383 221.297 14.418C221.297 11.6523 222.07 9.19141 223.617 7.03516C225.188 4.85547 227.426 3.15625 230.332 1.9375C233.262 0.71875 236.543 0.109375 240.176 0.109375C243.832 0.109375 247.09 0.777344 249.949 2.11328C252.809 3.42578 255.023 5.28906 256.594 7.70312C258.188 10.1172 258.984 12.8594 258.984 15.9297H248.438C248.438 13.5859 247.699 11.7695 246.223 10.4805C244.746 9.16797 242.672 8.51172 240 8.51172C237.422 8.51172 235.418 9.0625 233.988 10.1641C232.559 11.2422 231.844 12.6719 231.844 14.4531C231.844 16.1172 232.676 17.5117 234.34 18.6367C236.027 19.7617 238.5 20.8164 241.758 21.8008C247.758 23.6055 252.129 25.8438 254.871 28.5156C257.613 31.1875 258.984 34.5156 258.984 38.5C258.984 42.9297 257.309 46.4102 253.957 48.9414C250.605 51.4492 246.094 52.7031 240.422 52.7031C236.484 52.7031 232.898 51.9883 229.664 50.5586C226.43 49.1055 223.957 47.125 222.246 44.6172C220.559 42.1094 219.715 39.2031 219.715 35.8984H230.297C230.297 41.5469 233.672 44.3711 240.422 44.3711C242.93 44.3711 244.887 43.8672 246.293 42.8594C247.699 41.8281 248.402 40.3984 248.402 38.5703Z" fill="black"/>
<path d="M307.816 52H297.27V30.0625H276.703V52H266.156V0.8125H276.703V21.5547H297.27V0.8125H307.816V52Z" fill="black"/>
<path d="M359.109 27.5664C359.109 32.6055 358.219 37.0234 356.438 40.8203C354.656 44.6172 352.102 47.5469 348.773 49.6094C345.469 51.6719 341.672 52.7031 337.383 52.7031C333.141 52.7031 329.355 51.6836 326.027 49.6445C322.699 47.6055 320.121 44.6992 318.293 40.9258C316.465 37.1289 315.539 32.7695 315.516 27.8477V25.3164C315.516 20.2773 316.418 15.8477 318.223 12.0273C320.051 8.18359 322.617 5.24219 325.922 3.20312C329.25 1.14062 333.047 0.109375 337.312 0.109375C341.578 0.109375 345.363 1.14062 348.668 3.20312C351.996 5.24219 354.562 8.18359 356.367 12.0273C358.195 15.8477 359.109 20.2656 359.109 25.2812V27.5664ZM348.422 25.2461C348.422 19.8789 347.461 15.8008 345.539 13.0117C343.617 10.2227 340.875 8.82812 337.312 8.82812C333.773 8.82812 331.043 10.2109 329.121 12.9766C327.199 15.7188 326.227 19.75 326.203 25.0703V27.5664C326.203 32.793 327.164 36.8477 329.086 39.7305C331.008 42.6133 333.773 44.0547 337.383 44.0547C340.922 44.0547 343.641 42.6719 345.539 39.9062C347.438 37.1172 348.398 33.0625 348.422 27.7422V25.2461Z" fill="black"/>
<path d="M377.32 33.9648V52H366.773V0.8125H386.742C390.586 0.8125 393.961 1.51562 396.867 2.92188C399.797 4.32812 402.047 6.33203 403.617 8.93359C405.188 11.5117 405.973 14.4531 405.973 17.7578C405.973 22.7734 404.25 26.7344 400.805 29.6406C397.383 32.5234 392.637 33.9648 386.566 33.9648H377.32ZM377.32 25.4219H386.742C389.531 25.4219 391.652 24.7656 393.105 23.4531C394.582 22.1406 395.32 20.2656 395.32 17.8281C395.32 15.3203 394.582 13.293 393.105 11.7461C391.629 10.1992 389.59 9.40234 386.988 9.35547H377.32V25.4219Z" fill="black"/>
</svg>
