<svg height="512" viewBox="0 0 512 512" width="512" xmlns="http://www.w3.org/2000/svg"><g><g><path d="m448 496h-384l32-352h319z" fill="var(--primary-color)"/><g fill="#d8d7da"><circle cx="168" cy="224" r="16"/><circle cx="344" cy="224" r="16"/></g></g><path d="m455.96 495.25-33-352a7.988 7.988 0 0 0 -7.96-7.25h-63v-32a96 96 0 0 0 -192 0v32h-64a8.009 8.009 0 0 0 -7.97 7.28l-32 352a8.006 8.006 0 0 0 7.97 8.72h384a7.98 7.98 0 0 0 7.96-8.75zm-111.96-279.25a8 8 0 1 1 -8 8 8.011 8.011 0 0 1 8-8zm-168-112a80 80 0 0 1 160 0v32h-160zm-8 112a8 8 0 1 1 -8 8 8.011 8.011 0 0 1 8-8zm-95.24 272 30.55-336h56.69v49.38a24 24 0 1 0 16 0v-49.38h160v49.38a24 24 0 1 0 16 0v-49.38h55.71l31.5 336z"/></g></svg>
